<svg
  xmlns="http://www.w3.org/2000/svg"
  focusable="false"
  viewBox="0 0 12 16"
  class="icon icon--pinterest"
>
  <path
    fill-rule="evenodd"
    clip-rule="evenodd"
    d="M5.8042 0.00123531C8.79537 -0.0442356 10.6685 1.16769 11.5498 3.29299C11.8407 3.99433 12.1516 5.28439 11.9181 6.35474C11.825 6.78208 11.7985 7.22812 11.6726 7.63086C11.4163 8.4496 11.0829 9.17441 10.6413 9.79945C10.0418 10.6486 9.13196 11.2212 7.98951 11.5091C6.97899 11.7637 6.04959 11.3826 5.50954 10.9732C5.33747 10.843 5.10674 10.6728 5.04304 10.4377C5.03488 10.4377 5.0267 10.4377 5.01853 10.4377C4.97972 10.8669 4.81532 11.3224 4.69924 11.7135C4.53858 12.2545 4.50733 12.8146 4.3064 13.3208C4.08349 13.8828 3.81274 14.3978 3.52072 14.8776C3.36739 15.1292 2.94427 15.9904 2.63675 16C2.60311 15.9354 2.58964 15.9105 2.58761 15.796C2.48858 15.6383 2.55757 15.3724 2.51393 15.1578C2.44604 14.8236 2.39317 14.2217 2.46491 13.8824C2.46491 13.7038 2.46491 13.5248 2.46491 13.3465C2.54397 12.9786 2.54085 12.6015 2.63675 12.2494C2.84537 11.4824 2.96145 10.6699 3.17692 9.87611C3.38398 9.11352 3.57396 8.27939 3.74172 7.50321C3.77957 7.32789 3.56652 6.82389 3.52072 6.63572C3.37628 6.04186 3.48624 5.21874 3.66805 4.77269C3.89698 4.21111 4.56717 3.3535 5.43589 3.57359C6.13407 3.75039 6.57846 4.50528 6.34437 5.46192C6.09862 6.46589 5.7798 7.3653 5.5587 8.37035C5.50173 8.62933 5.59968 8.90442 5.65687 9.05958C5.86357 9.61934 6.49037 10.163 7.32652 9.95278C8.59396 9.63365 9.15431 8.48627 9.53645 7.24791C9.63981 6.91302 9.62743 6.59647 9.70831 6.22709C9.87894 5.44763 9.80648 4.28411 9.56098 3.67556C9.16753 2.70023 8.43329 2.07518 7.42471 1.73624C7.1465 1.68526 6.86819 1.63427 6.58988 1.58329C6.12397 1.47655 5.23532 1.63685 4.92023 1.73624C3.51171 2.18156 2.63952 2.92544 2.09658 4.26247C1.91177 4.71767 1.81046 5.17911 1.77741 5.81884C1.76913 5.8955 1.76094 5.97217 1.75278 6.04883C1.86153 6.62068 1.87259 6.99959 2.09658 7.42657C2.20715 7.63711 2.46971 7.8029 2.51393 8.06444C2.54001 8.2185 2.42705 8.45105 2.39125 8.57467C2.33705 8.76137 2.35676 8.97522 2.26844 9.13625C2.10873 9.42678 1.67383 9.20852 1.48275 9.08491C0.489307 8.44373 -0.329526 6.5895 0.132284 4.79837C0.20342 4.5218 0.206915 4.28118 0.304126 4.03285C0.906661 2.49554 1.80565 1.55101 3.10325 0.741098C3.58947 0.437749 4.24511 0.287354 4.84657 0.128885C5.16574 0.0863481 5.48503 0.0437917 5.8042 0.00123531Z"
    fill="#2a3663"
  />
</svg>
