<svg
  class="flickity-button-icon"
  viewBox="0 0 100 100"
  xmlns="http://www.w3.org/2000/svg"
  width="30"
  height="30"
>
  <path
    d="M48.7,50.4c0.8-0.4,1.1-0.8,1.9-0.8c7.2-3.8,13.7-9.9,19.4-18.3c5-7.2,7.2-16.8,7.2-29V0.5H67v1.9c0,7.2-0.8,12.6-1.9,16c-1.1,3.4-3.8,7.6-7.2,12.2c-3.8,4.6-8.4,8-13,10.3c-4.6,2.3-11.4,3.8-20.2,4.2h-1.9V55h1.9c8,0.8,14.9,2.3,19.4,4.6s9.1,5.7,13,10.3c3.8,4.6,6.1,8.4,7.2,12.2c1.1,3.4,1.9,8.8,1.9,16v1.9h10.3v-1.9c0-12.2-2.3-21.7-7.2-29c-5.7-8.4-12.2-14.5-19.8-18.3C49.4,50.8,49,50.4,48.7,50.4z"
    class="arrow"
    transform="translate(100, 100) rotate(180)"
  ></path>
</svg>
