<svg aria-labelledby="title" aria-hidden="true" width="56" height="28" viewBox="0 0 56 28"
    fill="#2A3663" xmlns="http://www.w3.org/2000/svg">
    <title id="title"> Title hand icon right</title>
    <path
        d="M55.8498 26.7199C55.8706 27.0294 55.8081 27.3005 55.6 27.5453C55.3797 27.8042 55.1542 28.0263 54.7812 27.9983C54.6858 27.9913 54.5904 27.9983 54.495 27.9983C54.0718 27.9983 53.6503 27.9825 53.2496 27.8147C53.1559 27.7744 53.0484 27.7709 52.946 27.7534C52.6945 27.7132 52.4413 27.6957 52.2019 27.5873C52.0562 27.5226 51.8931 27.5104 51.7318 27.5104C51.2374 27.5104 50.7431 27.5069 50.2487 27.5104C50.0752 27.5104 49.9191 27.4771 49.7717 27.3827C49.5878 27.2655 49.3727 27.2236 49.175 27.1396C49.0726 27.0959 48.9547 27.1116 48.8454 27.1431C48.4152 27.2638 48.0093 27.4474 47.593 27.6048C47.3016 27.715 47.0067 27.8112 46.7119 27.9091C46.3233 28.0385 45.8584 27.8671 45.6902 27.5366C45.5653 27.2918 45.3831 27.0644 45.3831 26.7636C45.3831 26.6937 45.3519 26.622 45.3259 26.5555C45.2669 26.4139 45.2305 26.267 45.2132 26.1131C45.1681 25.7056 45.1125 25.2999 45.0501 24.8959C45.0171 24.6861 44.9894 24.4657 45.0102 24.2489C45.031 24.025 44.9825 23.9568 44.7552 23.9463C44.4846 23.9341 44.2123 23.9376 43.9417 23.9358C43.6156 23.9358 43.2895 23.9358 42.9634 23.8904C42.7448 23.8589 42.5523 23.7662 42.3649 23.6613C42.2435 23.5931 42.1672 23.4794 42.1602 23.3272C42.1568 23.2555 42.1412 23.1838 42.1325 23.1121C42.1186 23.0037 42.0718 22.9408 41.9538 22.925C41.7058 22.89 41.5479 22.7309 41.4178 22.5263C41.2739 22.299 41.2114 22.0419 41.1178 21.7953C41.0206 21.5417 40.9651 21.2881 40.972 21.0206C40.9859 20.5764 40.9009 20.1409 40.8645 19.7002C40.8454 19.4746 40.7361 19.4169 40.5401 19.5236C40.1273 19.7457 39.6936 19.9276 39.3138 20.2126C39.2253 20.2791 39.1403 20.3578 39.0414 20.405C38.7049 20.5711 38.3927 20.7775 38.0787 20.9769C37.6884 21.2252 37.2617 21.3738 36.8471 21.5592C36.639 21.6519 36.4152 21.7411 36.1932 21.7848C35.7561 21.8722 35.312 21.923 34.868 21.9597C34.5609 21.9859 34.2661 21.8792 33.966 21.8705C33.4751 21.8548 33.0345 21.6554 32.5835 21.5085C32.3164 21.4211 32.0492 21.3144 31.7994 21.164C31.4369 20.9471 31.0744 20.732 30.7292 20.4907C30.4811 20.3176 30.2418 20.1304 29.992 19.9573C29.7769 19.8087 29.7613 19.8157 29.6052 20.0133C29.3814 20.2948 29.149 20.5606 28.8402 20.7653C28.3996 21.0573 27.9382 21.199 27.4161 21.122C27.2652 21.0993 27.1143 21.101 26.9634 21.0905C26.7622 21.0783 26.6459 21.1605 26.5505 21.3424C26.4187 21.5959 26.3164 21.8652 26.1082 22.0804C25.8185 22.3776 25.5184 22.6155 25.0692 22.5473C24.9356 22.528 24.8003 22.5403 24.672 22.4791C24.3719 22.3322 24.0857 22.1608 23.7838 22.0156C23.3745 21.818 23.0171 21.5295 22.6511 21.2637C22.5523 21.192 22.4551 21.1255 22.3372 21.0975C22.0527 21.0258 21.7821 20.8929 21.4785 20.8912C21.4317 20.8912 21.3814 20.8772 21.3398 20.8562C20.9634 20.6656 20.5696 20.5082 20.2747 20.1847C20.2053 20.1077 20.1256 20.0378 20.0388 19.9818C19.8567 19.8646 19.6971 19.7195 19.5306 19.5831C19.2635 19.3645 19.0536 19.0882 18.783 18.8731C18.5644 18.6982 18.3181 18.5967 18.0284 18.6492C17.4612 18.7506 16.8888 18.7786 16.3146 18.7734C16.2192 18.7734 16.1238 18.7629 16.0284 18.7506C15.6364 18.6982 15.2756 18.5425 14.9217 18.3816C14.5453 18.2085 14.2713 17.913 14.0267 17.5754C13.8688 17.3586 13.8289 17.105 13.7249 16.8707C13.6624 16.729 13.6295 16.5804 13.6399 16.4247C13.6728 15.9088 13.796 15.4192 13.992 14.9383C14.1915 14.4468 14.4933 14.0254 14.8194 13.6232C15.0275 13.3678 15.1056 13.095 15.1212 12.7837C15.123 12.7348 15.1212 12.6876 15.1212 12.6386C15.1143 11.9408 15.2981 11.3078 15.7457 10.7656C15.9452 10.5243 16.1013 10.2497 16.2955 10.0084C16.6425 9.5782 16.9269 9.10077 17.2964 8.68806C17.4005 8.57264 17.3589 8.47995 17.2045 8.45722C17.0466 8.43448 16.8888 8.41 16.7292 8.4065C16.3042 8.40125 15.8949 8.3348 15.4785 8.24037C15.0137 8.13544 14.5419 8.07073 14.0822 7.93258C13.9313 7.88711 13.7734 7.86088 13.626 7.79792C13.2496 7.63878 12.8558 7.60031 12.4517 7.63878C11.9209 7.69124 11.3866 7.71223 10.8541 7.72272C10.1446 7.73671 9.43518 7.72272 8.72573 7.68775C8.3181 7.66676 7.9122 7.6825 7.52885 7.50762C7.49416 7.49188 7.45079 7.49188 7.41263 7.48488C6.97204 7.39919 6.54012 7.44816 6.11515 7.57757C6.03882 7.60031 5.96077 7.61779 5.88271 7.62829C5.42998 7.68425 4.97551 7.69649 4.52278 7.67376C4.19147 7.65627 3.85322 7.65627 3.53405 7.52686C3.4612 7.49713 3.37967 7.48314 3.30162 7.47439C3.02408 7.44117 2.76042 7.36946 2.49502 7.26978C2.12902 7.13163 1.77343 6.98997 1.43865 6.77837C1.02234 6.51605 0.6442 6.224 0.363194 5.80954C0.27126 5.67313 0.217488 5.52273 0.155042 5.37758C-0.0479071 4.89666 -0.0756608 4.41924 0.217488 3.95581C0.458598 3.57457 0.812457 3.37521 1.24784 3.34373C1.81159 3.30351 2.37707 3.30176 2.93735 3.20208C3.09346 3.1741 3.25478 3.18809 3.41263 3.21957C3.59476 3.25454 3.77863 3.26504 3.95903 3.21432C4.17412 3.15486 4.39095 3.0954 4.59563 3.00621C4.96337 2.84533 5.35019 2.8121 5.74221 2.8086C6.17239 2.8051 6.60431 2.8086 7.03449 2.8086C7.15417 2.8086 7.27386 2.81035 7.39182 2.77887C7.68323 2.69843 7.96944 2.59175 8.2782 2.597C8.3233 2.597 8.3736 2.57951 8.41697 2.56027C8.6893 2.43436 8.97551 2.36965 9.27213 2.35391C9.5913 2.33643 9.89832 2.22625 10.2192 2.22975C10.5141 2.23325 10.7882 2.16329 11.031 1.99016C11.1264 1.92371 11.2305 1.89048 11.345 1.89048C11.6312 1.89223 11.9191 1.8695 12.2036 1.92371C12.3146 1.94469 12.4256 1.9307 12.5367 1.91846C12.9321 1.87474 13.3224 1.78905 13.7249 1.83977C13.907 1.8625 14.0891 1.88349 14.273 1.88524C14.7916 1.89223 15.3103 1.88524 15.8289 1.89398C16.2001 1.90097 16.5592 1.85201 16.9165 1.75582C17.0935 1.70861 17.2756 1.66838 17.4577 1.65964C17.7075 1.64915 17.9469 1.59144 18.1863 1.52848C18.3337 1.49001 18.4811 1.46552 18.6321 1.44629C18.8524 1.42006 19.0796 1.40781 19.2912 1.33262C19.5028 1.25742 19.7197 1.20845 19.9417 1.18397C20.2036 1.15599 20.4621 1.10527 20.7136 1.02483C20.8281 0.988102 20.9478 0.981107 21.0674 0.968865C21.4317 0.933889 21.7994 0.91815 22.1516 0.795734C22.2799 0.752015 22.4152 0.734526 22.5505 0.727531C22.7101 0.720536 22.8697 0.697802 23.0171 0.634845C23.4595 0.445975 23.9486 0.426738 24.3962 0.258854C24.4031 0.255356 24.4118 0.255356 24.4204 0.255356C24.7413 0.23437 25.0536 0.167916 25.3589 0.0787274C26.0059 -0.110143 26.606 0.0699834 27.1941 0.311317C27.5393 0.45297 27.8602 0.652333 28.2262 0.743271C28.2643 0.752014 28.3025 0.769502 28.3372 0.78699C28.7916 1.01783 29.2877 1.15074 29.7474 1.36934C29.8671 1.42705 30.018 1.42006 30.136 1.48126C30.4881 1.66139 30.8784 1.71735 31.2444 1.85551C31.652 2.00765 32.0718 2.13706 32.4759 2.30495C32.528 2.32593 32.5818 2.34692 32.6355 2.35391C32.9495 2.39763 33.2218 2.55677 33.508 2.67219C33.8758 2.81909 34.2279 3.00796 34.613 3.11289C34.6668 3.12688 34.7171 3.15311 34.7674 3.17935C34.9911 3.30351 35.234 3.3857 35.4647 3.49238C35.652 3.57807 35.8307 3.69699 36.0284 3.74945C36.3181 3.82465 36.5696 3.98204 36.8367 4.10096C37.0969 4.21813 37.3849 4.2706 37.6243 4.43673C37.6555 4.45772 37.6988 4.46471 37.737 4.47346C38.0648 4.54341 38.3649 4.7008 38.6876 4.79174C38.8749 4.8442 39.0501 4.95437 39.2496 4.9841C39.2877 4.98935 39.3311 5.00509 39.3589 5.02957C39.5323 5.17997 39.7526 5.19746 39.9625 5.23943C40.1429 5.2744 40.1845 5.23593 40.2053 5.04531C40.2244 4.87043 40.2366 4.6938 40.2609 4.51892C40.306 4.21288 40.5054 4.02052 40.7587 3.88061C40.9755 3.75995 41.1698 3.82815 41.3589 3.96456C41.5011 4.06599 41.5219 4.052 41.6347 3.92258C41.8498 3.676 42.1047 3.52561 42.4447 3.53085C42.9391 3.5396 43.4334 3.53085 43.9278 3.53085C44.2383 3.53085 44.3701 3.45216 44.4621 3.15836C44.5193 2.97648 44.6251 2.85582 44.7726 2.74914C44.9217 2.63897 45.0917 2.60749 45.2635 2.57601C45.3814 2.55502 45.4976 2.52704 45.6086 2.47983C45.7942 2.39938 45.9885 2.36441 46.1915 2.3679C46.3181 2.36965 46.4465 2.34692 46.5731 2.35042C46.7951 2.35741 47.0275 2.33293 47.2322 2.43436C47.5167 2.57601 47.8012 2.72291 48.0614 2.90304C48.3736 3.11989 48.7119 3.10065 49.0224 2.99572C49.3051 2.89954 49.5861 2.83833 49.8775 2.79636C50.2348 2.74389 50.587 2.79286 50.9061 2.93451C51.3918 3.14787 51.8775 3.10764 52.358 2.99747C52.6442 2.93276 52.9269 2.85232 53.2201 2.8121C53.2981 2.8016 53.3779 2.78587 53.4543 2.76488C53.8411 2.65995 54.2348 2.61448 54.6355 2.60924C54.9634 2.60399 55.2184 2.7404 55.4491 2.95375C55.5722 3.06917 55.6295 3.20907 55.6642 3.37171C55.711 3.59031 55.6642 3.80367 55.6642 4.02052C55.6624 4.59062 55.6884 5.16423 55.6451 5.73259C55.5826 6.55452 55.6138 7.37471 55.6798 8.1879C55.7283 8.78074 55.7561 9.37359 55.7942 9.96643C55.8289 10.4858 55.8723 11.0087 55.8567 11.5316C55.8532 11.619 55.8723 11.7065 55.8792 11.7957C55.9018 12.1332 55.9989 12.4602 55.9989 12.7995C55.9972 14.1181 55.9972 15.4367 55.9955 16.7553C55.9955 16.8602 55.9851 16.9634 55.9764 17.0683C55.9382 17.516 55.8723 17.9637 55.8636 18.4114C55.8445 19.4082 55.8133 20.4033 55.77 21.3983C55.7301 22.3024 55.77 23.2101 55.796 24.1159C55.8151 24.7735 55.8862 25.431 55.8515 26.0082C55.8515 26.3002 55.8411 26.5101 55.8532 26.7182L55.8498 26.7199ZM15.4352 14.4888C15.6121 14.4014 15.7994 14.3769 15.9937 14.3856C16.155 14.3926 16.3129 14.3594 16.4673 14.3262C16.9772 14.2143 17.4681 14.3419 17.9556 14.4503C18.1186 14.4871 18.2747 14.5955 18.4118 14.7022C18.5453 14.8054 18.6893 14.891 18.8263 14.9872C18.9998 15.1096 19.0987 15.0782 19.2201 14.898C19.4109 14.6165 19.6589 14.4259 19.9955 14.3332C20.3528 14.2352 20.7119 14.1863 21.0813 14.188C21.4716 14.1898 21.8602 14.1286 22.2522 14.1461C22.502 14.1565 22.7396 14.1915 22.9668 14.3104C23.2635 14.4643 23.5549 14.4731 23.8428 14.2597C24.0753 14.0883 24.3424 14.1198 24.5991 14.2073C24.6962 14.2405 24.7864 14.2965 24.8818 14.3367C25.057 14.4119 25.2149 14.4084 25.3641 14.2615C25.5826 14.0464 25.855 14.0166 26.1429 14.0674C26.606 14.1513 27.0744 14.2003 27.5462 14.1898C27.8255 14.1828 28.1082 14.174 28.3788 14.1303C28.7119 14.0761 29.0466 13.9834 29.3346 13.7841C29.3537 13.7701 29.3727 13.7491 29.3936 13.7438C29.8081 13.6284 30.136 13.3486 30.5106 13.1527C30.7483 13.0286 30.9877 12.9621 31.2409 12.9639C31.5236 12.9656 31.8151 12.9534 32.077 13.1143C32.214 13.1982 32.3771 13.2139 32.5384 13.2297C32.9113 13.2664 33.2808 13.3154 33.6503 13.3818C34.0753 13.4588 34.5089 13.4465 34.9356 13.3923C35.3224 13.3434 35.704 13.2524 36.0926 13.2157C36.2504 13.2017 36.4066 13.165 36.5523 13.0898C36.6668 13.0303 36.7934 12.9988 36.9217 12.9953C37.1472 12.9884 37.3623 12.9341 37.5774 12.8659C37.7301 12.817 37.8862 12.7925 38.0475 12.7942C38.4933 12.7977 38.9374 12.7278 39.3849 12.7453C39.4733 12.7488 39.5653 12.7383 39.6416 12.6963C39.8706 12.5669 40.1377 12.5179 40.3458 12.3465C40.4517 12.2609 40.5922 12.2399 40.7049 12.1594C41.1576 11.8376 41.3172 11.3742 41.338 10.8478C41.3519 10.4788 41.3606 10.1098 41.3814 9.74083C41.4005 9.41905 41.8411 9.09028 42.2071 9.25642C42.4014 9.34561 42.4794 9.55546 42.4846 9.76007C42.4933 10.0906 42.521 10.4176 42.5384 10.7464C42.5453 10.8828 42.5505 11.0192 42.5835 11.1521C42.6563 11.4424 42.6633 11.745 42.6702 12.037C42.6824 12.5826 42.7327 13.1283 42.7327 13.6739C42.7275 15.5958 42.7327 17.5177 42.7292 19.4397C42.7292 19.8506 42.672 20.2564 42.6217 20.6621C42.5644 21.1395 42.5141 21.6187 42.4933 22.1013C42.4881 22.215 42.4742 22.3234 42.4308 22.4301C42.3563 22.6102 42.3753 22.6347 42.5748 22.6365C43.0293 22.64 43.4855 22.6137 43.9382 22.6505C44.5367 22.6977 45.1334 22.6732 45.7318 22.6837C45.8029 22.6837 45.8758 22.6837 45.9469 22.6749C46.0406 22.6662 46.1169 22.6207 46.1498 22.528C46.1949 22.4004 46.2435 22.2692 46.2643 22.1363C46.2955 21.9474 46.3146 21.7533 46.3164 21.561C46.3285 20.8387 46.3563 20.1147 46.3771 19.3924C46.4048 18.4114 46.4482 17.4303 46.4066 16.4527C46.3528 15.1831 46.3996 13.9135 46.3615 12.6438C46.3389 11.9373 46.2973 11.2326 46.1568 10.5365C46.1429 10.4666 46.1325 10.3931 46.1342 10.3214C46.1516 9.80554 46.0718 9.29489 46.0787 8.78074C46.0805 8.65133 46.0544 8.52542 46.0267 8.39951C45.933 7.9658 45.8931 7.52686 45.8862 7.08441C45.881 6.75564 45.8376 6.42861 45.7474 6.10858C45.6746 5.85326 45.6694 5.58569 45.652 5.32162C45.6451 5.23418 45.652 5.14499 45.6433 5.05581C45.6173 4.80398 45.4491 4.65358 45.2027 4.63959C44.606 4.60462 44.0093 4.63959 43.4126 4.64659C43.3328 4.64659 43.2513 4.65533 43.1767 4.67632C42.8437 4.77075 42.5141 4.75326 42.1845 4.66932C42.1533 4.66233 42.1221 4.65183 42.0909 4.64659C42.0145 4.63609 41.9313 4.57838 41.8636 4.64659C41.7908 4.72004 41.8255 4.81622 41.8602 4.89492C42.0076 5.23243 42.0302 5.59443 42.0596 5.95469C42.0683 6.06661 42.0857 6.17853 42.1117 6.28696C42.1516 6.45834 42.188 6.63147 42.2279 6.8046C42.3008 7.12114 42.2001 7.36772 41.9573 7.57407C41.8012 7.70698 41.6347 7.69824 41.4612 7.65277C41.2912 7.6073 41.2184 7.46565 41.2114 7.30476C41.2045 7.09315 41.1282 6.92352 41.0119 6.75039C40.92 6.61573 40.8177 6.5248 40.6702 6.46883C40.4465 6.38664 40.2314 6.27297 39.9851 6.26597C39.9538 6.26597 39.9191 6.25898 39.8931 6.24499C39.6312 6.10159 39.3432 6.03863 39.064 5.94419C38.6494 5.80429 38.2348 5.66439 37.8203 5.52623C37.5063 5.4213 37.1906 5.31113 36.8836 5.17472C36.5904 5.04531 36.3164 4.83895 35.9764 4.82322C35.9538 4.82322 35.9243 4.81797 35.907 4.80573C35.6798 4.6326 35.397 4.58713 35.1438 4.47346C34.8905 4.35978 34.6373 4.23912 34.3892 4.1167C34.0961 3.97155 33.7856 3.87012 33.489 3.74071C33.2236 3.62529 32.9512 3.50987 32.6737 3.41368C32.3909 3.31575 32.1013 3.22132 31.8324 3.08666C31.8047 3.07267 31.7786 3.04644 31.7491 3.04119C31.4005 2.97998 31.1039 2.76488 30.7552 2.70192C30.6772 2.68793 30.6043 2.65296 30.5297 2.62498C30.4777 2.60399 30.4308 2.56552 30.3771 2.55677C30.0458 2.50431 29.7335 2.38189 29.4144 2.28396C29.0258 2.16504 28.6511 2.0129 28.2678 1.87824C28.1776 1.84676 28.0926 1.80304 27.9972 1.7873C27.8706 1.76632 27.7509 1.72435 27.6416 1.65439C27.5601 1.60193 27.4681 1.5757 27.3745 1.54947C27.2981 1.52848 27.2166 1.51449 27.1472 1.47777C26.7327 1.25567 26.2817 1.18397 25.8272 1.21894C25.3537 1.25567 24.8732 1.2854 24.4204 1.46378C24.332 1.49875 24.2366 1.53373 24.1429 1.53373C23.8654 1.53722 23.6104 1.62816 23.3537 1.71385C23.1941 1.76632 23.0293 1.79605 22.8593 1.78905C22.6893 1.78381 22.5228 1.80129 22.3649 1.86075C22.0544 1.97617 21.7301 2.00765 21.404 2.03563C21.3242 2.04263 21.2444 2.05137 21.1681 2.07411C20.6667 2.2245 20.1481 2.24549 19.6312 2.27871C19.5288 2.28571 19.4213 2.2997 19.3276 2.33817C19.1177 2.42561 18.9009 2.47108 18.6789 2.49382C18.5106 2.5113 18.3528 2.57076 18.1932 2.61973C17.9001 2.70892 17.593 2.69668 17.2947 2.75264C17.2236 2.76663 17.1507 2.77013 17.0831 2.79286C16.6286 2.94501 16.162 2.96249 15.6884 2.9555C15.1542 2.94676 14.6199 2.9555 14.0857 2.94676C13.8324 2.94326 13.6121 2.99572 13.4473 3.20733C13.4092 3.25629 13.3537 3.29651 13.2999 3.32799C13.142 3.41543 12.9824 3.35422 12.9113 3.18459C12.8992 3.15486 12.894 3.12164 12.8801 3.09365C12.8177 2.959 12.7084 2.8803 12.5661 2.86281C12.4222 2.84707 12.358 2.9555 12.3007 3.06742C12.2834 3.1024 12.2678 3.14087 12.2452 3.1741C12.1134 3.36996 11.8463 3.35422 11.7422 3.14087C11.6971 3.04819 11.6728 2.94501 11.5982 2.86631C11.5219 2.78412 11.4317 2.74215 11.319 2.76838C11.2097 2.79286 11.1663 2.8803 11.149 2.97998C11.116 3.17235 11.0657 3.35422 10.9321 3.50637C10.7968 3.66201 10.6685 3.66551 10.5349 3.50637C10.5089 3.47489 10.4881 3.44166 10.4638 3.41019C10.2799 3.1671 10.0579 3.03769 9.73874 3.12688C9.55487 3.1776 9.35886 3.15486 9.16805 3.1741C8.73614 3.21607 8.33544 3.3927 7.90699 3.44341C7.79945 3.45566 7.71966 3.52736 7.64507 3.60255C7.55487 3.69349 7.46293 3.78268 7.35539 3.85263C7.25652 3.91559 7.15938 3.92258 7.07091 3.83864C6.8194 3.6043 6.50023 3.56933 6.18453 3.53435C5.92954 3.50637 5.67629 3.55009 5.42477 3.59556C5.21315 3.63403 5.00153 3.67775 4.7847 3.67775C4.4586 3.67775 4.26085 3.86837 4.17065 4.15517C4.09086 4.4105 3.93301 4.54691 3.70231 4.66058C3.35192 4.83196 2.98592 4.86519 2.60951 4.87743C2.34585 4.88617 2.08392 4.88267 1.82026 4.88093C1.63639 4.88093 1.45253 4.88792 1.2756 4.82671C1.22356 4.80922 1.16111 4.78824 1.12989 4.85819C1.10561 4.9124 1.14724 4.95088 1.18887 4.97536C1.49242 5.16073 1.77516 5.38983 2.1429 5.44229C2.26259 5.45978 2.3736 5.49126 2.48115 5.54897C2.69797 5.66788 2.94082 5.68712 3.17846 5.69237C3.85669 5.70986 4.53319 5.70461 5.20968 5.6434C5.23397 5.64165 5.25825 5.6434 5.2808 5.63466C5.71792 5.47901 6.18973 5.45103 6.61818 5.27441C6.92 5.15024 7.20448 5.14674 7.49242 5.30239C7.51324 5.31463 7.53405 5.32687 7.55834 5.33212C7.99025 5.44579 8.42217 5.55771 8.86276 5.62242C9.0553 5.6504 9.26519 5.62941 9.456 5.58394C9.90526 5.47727 10.3701 5.44579 10.8038 5.26566C10.9859 5.18871 11.1785 5.15024 11.345 5.02608C11.4733 4.92989 11.6381 4.94913 11.7734 5.04531C11.9295 5.15549 12.0995 5.2062 12.2869 5.22194C12.3805 5.22894 12.4794 5.24992 12.5644 5.29014C12.7812 5.38983 13.0085 5.41256 13.2409 5.40731C13.4404 5.40382 13.6381 5.43005 13.8376 5.44054C14.4291 5.46852 15.0154 5.44579 15.5878 5.25692C15.8289 5.17822 16.0787 5.1415 16.3094 5.01383C16.4759 4.92115 16.6841 4.93514 16.8576 5.05406C16.9859 5.1415 17.1247 5.19571 17.2756 5.22019C17.4265 5.24642 17.5497 5.3496 17.6954 5.39332C18.3528 5.58569 19.0137 5.77456 19.6919 5.85151C20.4031 5.93195 21.1177 5.96168 21.8393 5.91272C22.3025 5.88124 22.7275 5.73259 23.1663 5.62416C23.3797 5.5717 23.5635 5.42655 23.7804 5.36359C24.1516 5.25517 24.358 5.39332 24.3996 5.7903C24.4222 6.0054 24.4603 6.2205 24.4881 6.43386C24.5106 6.59824 24.5956 6.71891 24.7327 6.80111C24.835 6.86231 24.946 6.91128 25.0536 6.96374C25.1056 6.98823 25.1646 7.00746 25.2166 6.98823C25.4439 6.89904 25.6988 6.87455 25.8827 6.68568C26.0458 6.51955 26.2071 6.35341 26.3719 6.19077C26.4933 6.07186 26.613 5.95294 26.8107 6.02639C27.0189 6.10333 27.1004 6.25723 27.1247 6.46708C27.1698 6.84133 27.2132 7.21732 27.2791 7.58806C27.3346 7.9011 27.4733 8.17391 27.737 8.37502C27.874 8.47995 28.0284 8.52192 28.1828 8.52017C28.436 8.51668 28.6858 8.4782 28.92 8.35229C29.1646 8.22113 29.4282 8.11445 29.6641 7.98154C29.9764 7.80491 30.3337 7.79093 30.6442 7.61779C30.809 7.52686 31.031 7.52686 31.2305 7.54784C31.4074 7.56533 31.6138 7.75945 31.6555 7.92733C31.6763 8.01302 31.6503 8.08472 31.5982 8.15118C31.4942 8.28409 31.3606 8.36453 31.1941 8.38202C31.0171 8.39951 30.8471 8.43623 30.7049 8.55515C30.6754 8.57963 30.6338 8.59712 30.5956 8.60237C30.3476 8.64259 30.1707 8.81572 29.9677 8.93639C29.4785 9.22669 29.064 9.61667 28.6269 9.97517C28.4603 10.1116 28.2851 10.2427 28.1377 10.3966C27.8532 10.6939 27.5184 10.9265 27.201 11.1801C26.8749 11.4407 26.5193 11.6523 26.1637 11.8586C25.9347 11.9915 25.6798 12.093 25.4282 12.1926C25.0085 12.3588 24.587 12.4112 24.1446 12.4182C23.9157 12.4217 23.6867 12.4637 23.4577 12.4864C23.2166 12.5092 22.972 12.5756 22.7778 12.7488C22.6407 12.8694 22.4759 12.9306 22.3198 12.8135C22.044 12.6089 21.7179 12.5651 21.404 12.4969C20.9321 12.392 20.4551 12.3955 19.9833 12.5144C19.6399 12.6019 19.2843 12.5739 18.9391 12.6351C18.8836 12.6456 18.8229 12.6421 18.776 12.6666C18.4916 12.8205 18.1707 12.8642 17.8758 12.9849C17.7197 13.0496 17.5635 13.1073 17.3953 13.1248C17.3051 13.1335 17.2288 13.172 17.1507 13.2174C17.0831 13.2577 17.0119 13.2996 16.9356 13.3206C16.6459 13.3976 16.41 13.5759 16.1568 13.7228C15.9001 13.8715 15.6711 14.0551 15.4404 14.2387C15.3589 14.3034 15.286 14.3734 15.2652 14.4801C15.3276 14.5343 15.3814 14.5028 15.43 14.4801L15.4352 14.4888ZM18.2643 15.6168C18.2001 15.4734 18.0926 15.3597 17.966 15.2793C17.593 15.0414 17.1871 14.9173 16.7396 14.982C16.6459 14.996 16.5488 15.0117 16.4551 15.01C16.2192 15.0047 15.9972 15.0484 15.7856 15.1551C15.6936 15.2006 15.5878 15.2128 15.489 15.2478C15.2478 15.3317 15.0189 15.4402 14.8454 15.6395C14.5679 15.9613 14.5158 16.3408 14.5679 16.7448C14.6702 17.523 15.338 17.8762 16.0111 17.9462C16.3511 17.9812 16.6997 17.9847 17.038 17.9462C17.5167 17.8902 17.9469 17.7049 18.2244 17.2712C18.2938 17.1627 18.3441 17.0508 18.358 16.9022C18.2452 16.9284 18.2088 17.0001 18.1707 17.0665C17.9937 17.3743 17.737 17.551 17.3901 17.6472C16.8454 17.801 16.306 17.7975 15.7578 17.7206C15.4612 17.6786 15.2305 17.502 15.0067 17.3201C14.9096 17.2414 14.9079 17.1208 14.9564 17.0088C15.005 16.8969 15.1021 16.8987 15.201 16.9179C15.4907 16.9756 15.7717 16.9162 16.051 16.8479C16.1984 16.813 16.3476 16.7867 16.495 16.7553C17.0171 16.6433 17.3051 16.0872 17.0189 15.5766C17.0067 15.5556 16.9911 15.5364 16.979 15.5171C16.8315 15.2845 16.9044 15.1289 17.175 15.1166C17.3693 15.1061 17.5497 15.1429 17.711 15.2758C17.8966 15.4297 18.0857 15.5748 18.1949 15.7987C18.2053 15.8197 18.2227 15.8371 18.2418 15.8529C18.2522 15.8616 18.2713 15.8581 18.2955 15.8634C18.3424 15.7742 18.299 15.6955 18.2643 15.6168ZM23.5098 18.4411C23.8029 18.3379 24.0978 18.3274 24.4048 18.3712C24.7448 18.4184 25.0813 18.4026 25.4196 18.289C25.8844 18.1316 26.3597 18.1403 26.8263 18.3082C27.0969 18.4044 27.3727 18.4813 27.6433 18.5758C27.9521 18.6842 28.2366 18.8521 28.5523 18.9395C28.5835 18.9483 28.6095 18.9675 28.6407 18.978C28.698 18.9972 28.7535 18.9972 28.783 18.9325C28.8055 18.8818 28.7847 18.8311 28.7413 18.8066C28.5835 18.7157 28.4395 18.602 28.2591 18.546C27.9556 18.4516 27.6503 18.3554 27.3554 18.2365C26.8038 18.0144 26.24 17.92 25.6503 18.0284C25.4317 18.0686 25.2079 18.0826 24.9998 18.1735C24.8957 18.219 24.7795 18.1998 24.6685 18.1805C24.5193 18.1543 24.3701 18.1246 24.2192 18.1088C23.9868 18.0861 23.763 18.1001 23.5462 18.2173C23.3155 18.3432 23.0484 18.3362 22.7986 18.3187C21.9174 18.2522 21.0362 18.1753 20.1498 18.2015C20.0458 18.205 19.9417 18.2068 19.8445 18.247C19.7994 18.2662 19.7491 18.2872 19.763 18.3467C19.7752 18.4009 19.8255 18.4149 19.874 18.4219C19.9053 18.4254 19.9382 18.4219 19.9694 18.4219C20.5419 18.3816 21.1143 18.3974 21.6884 18.4219C22.103 18.4394 22.5106 18.5198 22.9235 18.539C23.1264 18.5425 23.3207 18.5093 23.5115 18.4429L23.5098 18.4411ZM21.2929 7.77519C21.4525 8.048 21.593 8.32955 21.7197 8.6216C21.8532 8.92939 21.9053 9.27041 22.0943 9.55371C22.1117 9.57994 22.1238 9.61142 22.1308 9.6429C22.2314 10.1361 22.5401 10.5173 22.7968 10.9265C22.8853 11.0682 23.0275 11.1451 23.1455 11.25C23.1733 11.2745 23.2166 11.2868 23.2548 11.2938C23.3103 11.3043 23.371 11.3043 23.404 11.2483C23.4404 11.1888 23.404 11.1399 23.3641 11.0997C23.3311 11.0664 23.2895 11.0402 23.253 11.0105C22.9998 10.8093 22.8177 10.5558 22.6581 10.2725C22.5072 10.0049 22.4066 9.71635 22.306 9.43479C22.2001 9.14449 22.0579 8.86644 21.9781 8.56214C21.9087 8.29633 21.7838 8.041 21.6347 7.80317C21.5757 7.70873 21.5254 7.6073 21.4612 7.51636C21.4161 7.45166 21.3467 7.43067 21.2704 7.46215C21.2184 7.48314 21.2097 7.53035 21.2062 7.56183C21.2114 7.65627 21.2583 7.71398 21.2929 7.77519ZM20.9217 9.21794C20.9634 9.21794 21.0067 9.20046 21.0137 9.15674C21.0241 9.09903 20.979 9.0693 20.9321 9.05531C20.7882 9.01159 20.6425 8.96786 20.4968 8.93464C20.3892 8.91016 20.2782 8.89616 20.1672 8.88392C20.0249 8.86818 19.8844 8.84195 19.7509 8.78599C19.5826 8.71429 19.4144 8.64609 19.2288 8.62685C19.1594 8.61985 19.0883 8.58838 19.0293 8.55165C18.9131 8.4782 18.7847 8.43798 18.6615 8.38202C18.5922 8.35054 18.5089 8.28758 18.4534 8.38901C18.4048 8.4782 18.4829 8.53766 18.5384 8.59187C18.6962 8.74752 18.9079 8.82796 19.1039 8.88567C19.5896 9.02907 20.0753 9.18996 20.5887 9.21794C20.6286 9.21969 20.6685 9.21794 20.7084 9.21794C20.7795 9.21794 20.8506 9.21969 20.9235 9.21794H20.9217ZM32.5401 19.34C32.8576 19.2735 33.1646 19.1511 33.4577 19.0077C33.8168 18.8311 34.136 18.5915 34.4482 18.3432C34.5124 18.2925 34.6269 18.24 34.5419 18.1403C34.4725 18.0581 34.3788 18.1211 34.3112 18.1805C33.9955 18.4533 33.6537 18.6859 33.2756 18.8626C32.8541 19.0619 32.41 19.1791 31.9452 19.2141C31.7942 19.2263 31.6451 19.2438 31.4942 19.2595C31.4387 19.2665 31.3745 19.2735 31.3779 19.3505C31.3814 19.4204 31.4421 19.4344 31.4976 19.4432C31.5289 19.4484 31.5618 19.4467 31.5618 19.4467C31.9105 19.4117 32.2314 19.4029 32.5401 19.3382V19.34ZM25.9174 8.50094C25.6746 9.134 25.2583 9.64465 24.7864 10.1133C24.7066 10.192 24.6251 10.269 24.5245 10.3197C24.4742 10.3459 24.4291 10.3774 24.3979 10.4281C24.3701 10.4718 24.3649 10.519 24.3979 10.5628C24.4239 10.5977 24.4638 10.6065 24.5054 10.5995C24.5887 10.5873 24.6511 10.5383 24.7084 10.4806C24.9287 10.2497 25.1767 10.0469 25.3849 9.80379C25.4595 9.7181 25.5098 9.61842 25.574 9.52748C25.7682 9.25467 25.959 8.97836 26.1238 8.68631C26.1585 8.62335 26.2053 8.56739 26.2071 8.49044C26.2071 8.4135 26.1707 8.37153 26.0943 8.36453C26.0024 8.36453 25.9469 8.42049 25.9157 8.50094H25.9174ZM2.84021 4.20414C2.95816 4.17966 3.07265 4.14818 3.18193 4.10096C3.22703 4.08173 3.27039 4.05374 3.26345 3.99603C3.25652 3.93657 3.20621 3.92258 3.15764 3.92084C3.07091 3.92084 2.98245 3.91909 2.89572 3.92958C2.45339 3.98029 2.0128 4.05549 1.56701 4.06074C1.55834 4.06074 1.5514 4.06074 1.54273 4.06074C1.47508 4.07123 1.37794 4.06074 1.38314 4.16042C1.38835 4.25486 1.48548 4.24611 1.55313 4.24786C1.71966 4.25311 1.88791 4.24786 2.05443 4.24786C2.31809 4.25311 2.58002 4.25311 2.84021 4.20064V4.20414ZM25.038 15.6343C25.0223 15.5608 24.9686 15.4961 24.8818 15.5224C24.7916 15.5486 24.7882 15.6325 24.8229 15.7007C24.9825 16.019 24.9235 16.36 24.9287 16.6958C24.9304 16.8025 24.8992 16.9004 24.8645 17.0001C24.8419 17.063 24.835 17.133 24.9131 17.1627C24.9842 17.189 25.0345 17.1435 25.0692 17.084C25.0935 17.0421 25.1108 16.9966 25.1247 16.9511C25.1785 16.7745 25.1975 16.5909 25.2166 16.395C25.1889 16.1397 25.09 15.8914 25.038 15.6325V15.6343ZM22.7986 17.0211C22.8298 17.1085 22.8454 17.2397 22.9738 17.1995C23.1021 17.1592 23.0518 17.0456 23.0102 16.9564C22.9651 16.8584 22.9634 16.7535 22.9634 16.6503C22.9634 16.3933 22.9634 16.1362 22.9634 15.8791C22.9634 15.8232 22.9634 15.7672 22.9599 15.7112C22.9512 15.629 22.9356 15.5381 22.8315 15.5416C22.7379 15.5451 22.7327 15.6343 22.7309 15.706C22.7275 15.8739 22.7309 16.0435 22.7309 16.2114C22.7309 16.4842 22.7049 16.7588 22.802 17.0228L22.7986 17.0211Z"
        fill="#2A3663"></path>
</svg>