<svg aria-labelledby="title" aria-hidden="true" width="56" height="28" viewBox="0 0 56 28"
    fill="none" xmlns="http://www.w3.org/2000/svg">
    <title id="title"> Title hand icon left</title>
    <path
        d="M0.149269 26.7199C0.128456 27.0294 0.190903 27.3005 0.399055 27.5453C0.61935 27.8042 0.844849 28.0263 1.21779 27.9983C1.31319 27.9913 1.40859 27.9983 1.504 27.9983C1.92724 27.9983 2.34875 27.9825 2.74944 27.8147C2.84311 27.7744 2.95066 27.7709 3.053 27.7534C3.30452 27.7132 3.55777 27.6957 3.79715 27.5873C3.94285 27.5226 4.1059 27.5104 4.26722 27.5104C4.76159 27.5104 5.25595 27.5069 5.75031 27.5104C5.92377 27.5104 6.07989 27.4771 6.22733 27.3827C6.4112 27.2655 6.62629 27.2236 6.82404 27.1396C6.92638 27.0959 7.04433 27.1116 7.15361 27.1431C7.58379 27.2638 7.98969 27.4474 8.40599 27.6048C8.69741 27.715 8.99229 27.8112 9.28717 27.9091C9.67572 28.0385 10.1406 27.8671 10.3089 27.5366C10.4337 27.2918 10.6159 27.0644 10.6159 26.7636C10.6159 26.6937 10.6471 26.622 10.6731 26.5555C10.7321 26.4139 10.7685 26.267 10.7859 26.1131C10.831 25.7056 10.8865 25.2999 10.9489 24.8959C10.9819 24.6861 11.0096 24.4657 10.9888 24.2489C10.968 24.025 11.0166 23.9568 11.2438 23.9463C11.5144 23.9341 11.7867 23.9376 12.0573 23.9358C12.3834 23.9358 12.7095 23.9358 13.0357 23.8904C13.2542 23.8589 13.4468 23.7662 13.6341 23.6613C13.7555 23.5931 13.8318 23.4794 13.8388 23.3272C13.8422 23.2555 13.8579 23.1838 13.8665 23.1121C13.8804 23.0037 13.9272 22.9408 14.0452 22.925C14.2932 22.89 14.4511 22.7309 14.5812 22.5263C14.7252 22.299 14.7876 22.0419 14.8813 21.7953C14.9784 21.5417 15.0339 21.2881 15.027 21.0206C15.0131 20.5764 15.0981 20.1409 15.1345 19.7002C15.1536 19.4746 15.2629 19.4169 15.4589 19.5236C15.8717 19.7457 16.3054 19.9276 16.6853 20.2126C16.7737 20.2791 16.8587 20.3578 16.9576 20.405C17.2941 20.5711 17.6063 20.7775 17.9203 20.9769C18.3106 21.2252 18.7373 21.3738 19.1519 21.5592C19.36 21.6519 19.5838 21.7411 19.8058 21.7848C20.2429 21.8722 20.687 21.923 21.1311 21.9597C21.4381 21.9859 21.733 21.8792 22.0331 21.8705C22.5239 21.8548 22.9645 21.6554 23.4155 21.5085C23.6827 21.4211 23.9498 21.3144 24.1996 21.164C24.5621 20.9471 24.9246 20.732 25.2698 20.4907C25.5179 20.3176 25.7573 20.1304 26.007 19.9573C26.2221 19.8087 26.2377 19.8157 26.3939 20.0133C26.6176 20.2948 26.8501 20.5606 27.1588 20.7653C27.5994 21.0573 28.0608 21.199 28.5829 21.122C28.7338 21.0993 28.8847 21.101 29.0357 21.0905C29.2369 21.0783 29.3531 21.1605 29.4485 21.3424C29.5803 21.5959 29.6827 21.8652 29.8908 22.0804C30.1805 22.3776 30.4806 22.6155 30.9298 22.5473C31.0634 22.528 31.1987 22.5403 31.3271 22.4791C31.6272 22.3322 31.9134 22.1608 32.2152 22.0156C32.6246 21.818 32.9819 21.5295 33.3479 21.2637C33.4468 21.192 33.5439 21.1255 33.6618 21.0975C33.9463 21.0258 34.2169 20.8929 34.5205 20.8912C34.5673 20.8912 34.6176 20.8772 34.6592 20.8562C35.0357 20.6656 35.4294 20.5082 35.7243 20.1847C35.7937 20.1077 35.8735 20.0378 35.9602 19.9818C36.1423 19.8646 36.3019 19.7195 36.4684 19.5831C36.7356 19.3645 36.9455 19.0882 37.2161 18.8731C37.4346 18.6982 37.6809 18.5967 37.9706 18.6492C38.5378 18.7506 39.1102 18.7786 39.6844 18.7734C39.7798 18.7734 39.8752 18.7629 39.9706 18.7506C40.3626 18.6982 40.7234 18.5425 41.0773 18.3816C41.4537 18.2085 41.7278 17.913 41.9723 17.5754C42.1302 17.3586 42.1701 17.105 42.2742 16.8707C42.3366 16.729 42.3696 16.5804 42.3592 16.4247C42.3262 15.9088 42.203 15.4192 42.007 14.9383C41.8076 14.4468 41.5057 14.0254 41.1796 13.6232C40.9715 13.3678 40.8934 13.095 40.8778 12.7837C40.8761 12.7348 40.8778 12.6876 40.8778 12.6386C40.8847 11.9408 40.7009 11.3078 40.2533 10.7656C40.0539 10.5243 39.8978 10.2497 39.7035 10.0084C39.3566 9.5782 39.0721 9.10077 38.7026 8.68806C38.5985 8.57264 38.6402 8.47995 38.7945 8.45722C38.9524 8.43448 39.1102 8.41 39.2698 8.4065C39.6948 8.40125 40.1042 8.3348 40.5205 8.24037C40.9854 8.13544 41.4572 8.07073 41.9168 7.93258C42.0677 7.88711 42.2256 7.86088 42.373 7.79792C42.7494 7.63878 43.1432 7.60031 43.5474 7.63878C44.0782 7.69124 44.6124 7.71223 45.1449 7.72272C45.8544 7.73671 46.5638 7.72272 47.2733 7.68775C47.6809 7.66676 48.0868 7.6825 48.4702 7.50762C48.5049 7.49188 48.5482 7.49188 48.5864 7.48488C49.027 7.39919 49.4589 7.44816 49.8839 7.57757C49.9602 7.60031 50.0383 7.61779 50.1163 7.62829C50.569 7.68425 51.0235 7.69649 51.4762 7.67376C51.8076 7.65627 52.1458 7.65627 52.465 7.52686C52.5378 7.49713 52.6194 7.48314 52.6974 7.47439C52.9749 7.44117 53.2386 7.36946 53.504 7.26978C53.87 7.13163 54.2256 6.98997 54.5604 6.77837C54.9767 6.51605 55.3548 6.224 55.6358 5.80954C55.7278 5.67313 55.7815 5.52273 55.844 5.37758C56.0469 4.89666 56.0747 4.41924 55.7815 3.95581C55.5404 3.57457 55.1866 3.37521 54.7512 3.34373C54.1874 3.30351 53.622 3.30176 53.0617 3.20208C52.9056 3.1741 52.7442 3.18809 52.5864 3.21957C52.4043 3.25454 52.2204 3.26504 52.04 3.21432C51.8249 3.15486 51.6081 3.0954 51.4034 3.00621C51.0357 2.84533 50.6488 2.8121 50.2568 2.8086C49.8266 2.8051 49.3947 2.8086 48.9645 2.8086C48.8448 2.8086 48.7252 2.81035 48.6072 2.77887C48.3158 2.69843 48.0296 2.59175 47.7208 2.597C47.6757 2.597 47.6254 2.57951 47.5821 2.56027C47.3097 2.43436 47.0235 2.36965 46.7269 2.35391C46.4077 2.33643 46.1007 2.22625 45.7798 2.22975C45.4849 2.23325 45.2109 2.16329 44.968 1.99016C44.8726 1.92371 44.7685 1.89048 44.654 1.89048C44.3678 1.89223 44.0799 1.8695 43.7954 1.92371C43.6844 1.94469 43.5734 1.9307 43.4624 1.91846C43.0669 1.87474 42.6766 1.78905 42.2742 1.83977C42.092 1.8625 41.9099 1.88349 41.726 1.88524C41.2074 1.89223 40.6887 1.88524 40.1701 1.89398C39.7989 1.90097 39.4398 1.85201 39.0825 1.75582C38.9056 1.70861 38.7234 1.66838 38.5413 1.65964C38.2915 1.64915 38.0521 1.59144 37.8128 1.52848C37.6653 1.49001 37.5179 1.46552 37.367 1.44629C37.1467 1.42006 36.9194 1.40781 36.7078 1.33262C36.4962 1.25742 36.2794 1.20845 36.0573 1.18397C35.7954 1.15599 35.537 1.10527 35.2854 1.02483C35.171 0.988102 35.0513 0.981107 34.9316 0.968865C34.5673 0.933889 34.1996 0.91815 33.8475 0.795734C33.7191 0.752015 33.5838 0.734526 33.4485 0.727531C33.2889 0.720536 33.1293 0.697802 32.9819 0.634845C32.5396 0.445975 32.0504 0.426738 31.6029 0.258854C31.5959 0.255356 31.5873 0.255356 31.5786 0.255356C31.2577 0.23437 30.9455 0.167916 30.6402 0.0787274C29.9932 -0.110143 29.393 0.0699834 28.805 0.311317C28.4598 0.45297 28.1389 0.652333 27.7729 0.743271C27.7347 0.752014 27.6965 0.769502 27.6618 0.78699C27.2074 1.01783 26.7113 1.15074 26.2516 1.36934C26.1319 1.42705 25.981 1.42006 25.8631 1.48126C25.5109 1.66139 25.1207 1.71735 24.7547 1.85551C24.347 2.00765 23.9272 2.13706 23.5231 2.30495C23.471 2.32593 23.4173 2.34692 23.3635 2.35391C23.0495 2.39763 22.7772 2.55677 22.491 2.67219C22.1233 2.81909 21.7711 3.00796 21.386 3.11289C21.3323 3.12688 21.282 3.15311 21.2317 3.17935C21.0079 3.30351 20.7651 3.3857 20.5344 3.49238C20.347 3.57807 20.1684 3.69699 19.9706 3.74945C19.6809 3.82465 19.4294 3.98204 19.1623 4.10096C18.9021 4.21813 18.6141 4.2706 18.3748 4.43673C18.3435 4.45772 18.3002 4.46471 18.262 4.47346C17.9342 4.54341 17.6341 4.7008 17.3115 4.79174C17.1241 4.8442 16.9489 4.95437 16.7494 4.9841C16.7113 4.98935 16.6679 5.00509 16.6402 5.02957C16.4667 5.17997 16.2464 5.19746 16.0365 5.23943C15.8561 5.2744 15.8145 5.23593 15.7937 5.04531C15.7746 4.87043 15.7625 4.6938 15.7382 4.51892C15.6931 4.21288 15.4936 4.02052 15.2403 3.88061C15.0235 3.75995 14.8292 3.82815 14.6402 3.96456C14.4979 4.06599 14.4771 4.052 14.3644 3.92258C14.1493 3.676 13.8943 3.52561 13.5543 3.53085C13.0599 3.5396 12.5656 3.53085 12.0712 3.53085C11.7607 3.53085 11.6289 3.45216 11.537 3.15836C11.4797 2.97648 11.3739 2.85582 11.2265 2.74914C11.0773 2.63897 10.9073 2.60749 10.7356 2.57601C10.6176 2.55502 10.5014 2.52704 10.3904 2.47983C10.2048 2.39938 10.0105 2.36441 9.80755 2.3679C9.68093 2.36965 9.55257 2.34692 9.42594 2.35042C9.20391 2.35741 8.97147 2.33293 8.76679 2.43436C8.48232 2.57601 8.19784 2.72291 7.93765 2.90304C7.62542 3.11989 7.28717 3.10065 6.97667 2.99572C6.69394 2.89954 6.41293 2.83833 6.12152 2.79636C5.76419 2.74389 5.41206 2.79286 5.0929 2.93451C4.60721 3.14787 4.12152 3.10764 3.64103 2.99747C3.35482 2.93276 3.07208 2.85232 2.77893 2.8121C2.70087 2.8016 2.62108 2.78587 2.54476 2.76488C2.15794 2.65995 1.76419 2.61448 1.36349 2.60924C1.03565 2.60399 0.780666 2.7404 0.549965 2.95375C0.426807 3.06917 0.369568 3.20907 0.334873 3.37171C0.28804 3.59031 0.334873 3.80367 0.334873 4.02052C0.336609 4.59062 0.310589 5.16423 0.353954 5.73259C0.416397 6.55452 0.385178 7.37471 0.319263 8.1879C0.270695 8.78074 0.242939 9.37359 0.204781 9.96643C0.170086 10.4858 0.12672 11.0087 0.14233 11.5316C0.145802 11.619 0.126717 11.7065 0.119781 11.7957C0.097229 12.1332 9.53674e-05 12.4602 9.53674e-05 12.7995C0.00183105 14.1181 0.00183105 15.4367 0.00356293 16.7553C0.00356293 16.8602 0.0139694 16.9634 0.022644 17.0683C0.0608025 17.516 0.126724 17.9637 0.135395 18.4114C0.154476 19.4082 0.185696 20.4033 0.229061 21.3983C0.268955 22.3024 0.229061 23.2101 0.203041 24.1159C0.183964 24.7735 0.112843 25.431 0.147533 26.0082C0.147533 26.3002 0.157944 26.5101 0.145802 26.7182L0.149269 26.7199ZM40.5638 14.4888C40.3869 14.4014 40.1996 14.3769 40.0053 14.3856C39.844 14.3926 39.6861 14.3594 39.5318 14.3262C39.0218 14.2143 38.5309 14.3419 38.0435 14.4503C37.8804 14.4871 37.7243 14.5955 37.5873 14.7022C37.4537 14.8054 37.3097 14.891 37.1727 14.9872C36.9992 15.1096 36.9004 15.0782 36.7789 14.898C36.5881 14.6165 36.3401 14.4259 36.0036 14.3332C35.6462 14.2352 35.2872 14.1863 34.9177 14.188C34.5274 14.1898 34.1389 14.1286 33.7468 14.1461C33.4971 14.1565 33.2594 14.1915 33.0322 14.3104C32.7356 14.4643 32.4442 14.4731 32.1562 14.2597C31.9238 14.0883 31.6566 14.1198 31.3999 14.2073C31.3028 14.2405 31.2126 14.2965 31.1172 14.3367C30.942 14.4119 30.7841 14.4084 30.635 14.2615C30.4164 14.0464 30.1441 14.0166 29.8561 14.0674C29.393 14.1513 28.9246 14.2003 28.4528 14.1898C28.1736 14.1828 27.8908 14.174 27.6202 14.1303C27.2872 14.0761 26.9524 13.9834 26.6644 13.7841C26.6454 13.7701 26.6263 13.7491 26.6055 13.7438C26.1909 13.6284 25.8631 13.3486 25.4884 13.1527C25.2507 13.0286 25.0114 12.9621 24.7581 12.9639C24.4754 12.9656 24.184 12.9534 23.922 13.1143C23.785 13.1982 23.622 13.2139 23.4606 13.2297C23.0877 13.2664 22.7182 13.3154 22.3488 13.3818C21.9238 13.4588 21.4901 13.4465 21.0634 13.3923C20.6766 13.3434 20.295 13.2524 19.9064 13.2157C19.7486 13.2017 19.5925 13.165 19.4468 13.0898C19.3323 13.0303 19.2056 12.9988 19.0773 12.9953C18.8518 12.9884 18.6367 12.9341 18.4216 12.8659C18.269 12.817 18.1128 12.7925 17.9515 12.7942C17.5057 12.7977 17.0617 12.7278 16.6141 12.7453C16.5257 12.7488 16.4337 12.7383 16.3574 12.6963C16.1285 12.5669 15.8613 12.5179 15.6532 12.3465C15.5474 12.2609 15.4069 12.2399 15.2941 12.1594C14.8414 11.8376 14.6818 11.3742 14.661 10.8478C14.6471 10.4788 14.6384 10.1098 14.6176 9.74083C14.5985 9.41905 14.1579 9.09028 13.7919 9.25642C13.5977 9.34561 13.5196 9.55546 13.5144 9.76007C13.5057 10.0906 13.478 10.4176 13.4606 10.7464C13.4537 10.8828 13.4485 11.0192 13.4155 11.1521C13.3427 11.4424 13.3357 11.745 13.3288 12.037C13.3167 12.5826 13.2664 13.1283 13.2664 13.6739C13.2716 15.5958 13.2664 17.5177 13.2698 19.4397C13.2698 19.8506 13.3271 20.2564 13.3774 20.6621C13.4346 21.1395 13.4849 21.6187 13.5057 22.1013C13.5109 22.215 13.5248 22.3234 13.5682 22.4301C13.6428 22.6102 13.6237 22.6347 13.4242 22.6365C12.9697 22.64 12.5135 22.6137 12.0608 22.6505C11.4624 22.6977 10.8657 22.6732 10.2672 22.6837C10.1961 22.6837 10.1233 22.6837 10.0521 22.6749C9.95846 22.6662 9.88214 22.6207 9.84919 22.528C9.80408 22.4004 9.75552 22.2692 9.7347 22.1363C9.70348 21.9474 9.68439 21.7533 9.68266 21.561C9.67052 20.8387 9.64277 20.1147 9.62195 19.3924C9.5942 18.4114 9.55083 17.4303 9.59246 16.4527C9.64624 15.1831 9.5994 13.9135 9.63757 12.6438C9.66011 11.9373 9.70174 11.2326 9.84225 10.5365C9.85612 10.4666 9.86653 10.3931 9.8648 10.3214C9.84745 9.80554 9.92724 9.29489 9.9203 8.78074C9.91857 8.65133 9.94459 8.52542 9.97234 8.39951C10.066 7.9658 10.1059 7.52686 10.1128 7.08441C10.118 6.75564 10.1614 6.42861 10.2516 6.10858C10.3245 5.85326 10.3297 5.58569 10.347 5.32162C10.354 5.23418 10.347 5.14499 10.3557 5.05581C10.3817 4.80398 10.55 4.65358 10.7963 4.63959C11.393 4.60462 11.9897 4.63959 12.5864 4.64659C12.6662 4.64659 12.7477 4.65533 12.8223 4.67632C13.1553 4.77075 13.4849 4.75326 13.8145 4.66932C13.8457 4.66233 13.8769 4.65183 13.9082 4.64659C13.9845 4.63609 14.0677 4.57838 14.1354 4.64659C14.2082 4.72004 14.1736 4.81622 14.1389 4.89492C13.9914 5.23243 13.9689 5.59443 13.9394 5.95469C13.9307 6.06661 13.9134 6.17853 13.8873 6.28696C13.8475 6.45834 13.811 6.63147 13.7711 6.8046C13.6983 7.12114 13.7989 7.36772 14.0417 7.57407C14.1978 7.70698 14.3644 7.69824 14.5378 7.65277C14.7078 7.6073 14.7807 7.46565 14.7876 7.30476C14.7945 7.09315 14.8709 6.92352 14.9871 6.75039C15.079 6.61573 15.1814 6.5248 15.3288 6.46883C15.5526 6.38664 15.7677 6.27297 16.014 6.26597C16.0452 6.26597 16.0799 6.25898 16.1059 6.24499C16.3678 6.10159 16.6558 6.03863 16.935 5.94419C17.3496 5.80429 17.7642 5.66439 18.1788 5.52623C18.4927 5.4213 18.8084 5.31113 19.1154 5.17472C19.4086 5.04531 19.6827 4.83895 20.0226 4.82322C20.0452 4.82322 20.0747 4.81797 20.092 4.80573C20.3193 4.6326 20.602 4.58713 20.8553 4.47346C21.1085 4.35978 21.3618 4.23912 21.6098 4.1167C21.903 3.97155 22.2135 3.87012 22.5101 3.74071C22.7755 3.62529 23.0478 3.50987 23.3253 3.41368C23.6081 3.31575 23.8978 3.22132 24.1666 3.08666C24.1944 3.07267 24.2204 3.04644 24.2499 3.04119C24.5985 2.97998 24.8952 2.76488 25.2438 2.70192C25.3219 2.68793 25.3947 2.65296 25.4693 2.62498C25.5213 2.60399 25.5682 2.56552 25.622 2.55677C25.9533 2.50431 26.2655 2.38189 26.5847 2.28396C26.9732 2.16504 27.3479 2.0129 27.7312 1.87824C27.8214 1.84676 27.9064 1.80304 28.0018 1.7873C28.1285 1.76632 28.2481 1.72435 28.3574 1.65439C28.4389 1.60193 28.5309 1.5757 28.6246 1.54947C28.7009 1.52848 28.7824 1.51449 28.8518 1.47777C29.2664 1.25567 29.7174 1.18397 30.1718 1.21894C30.6454 1.25567 31.1259 1.2854 31.5786 1.46378C31.6671 1.49875 31.7625 1.53373 31.8561 1.53373C32.1337 1.53722 32.3886 1.62816 32.6454 1.71385C32.805 1.76632 32.9697 1.79605 33.1397 1.78905C33.3097 1.78381 33.4762 1.80129 33.6341 1.86075C33.9446 1.97617 34.269 2.00765 34.5951 2.03563C34.6749 2.04263 34.7547 2.05137 34.831 2.07411C35.3323 2.2245 35.8509 2.24549 36.3678 2.27871C36.4702 2.28571 36.5777 2.2997 36.6714 2.33817C36.8813 2.42561 37.0981 2.47108 37.3201 2.49382C37.4884 2.5113 37.6462 2.57076 37.8058 2.61973C38.099 2.70892 38.406 2.69668 38.7043 2.75264C38.7755 2.76663 38.8483 2.77013 38.916 2.79286C39.3704 2.94501 39.837 2.96249 40.3106 2.9555C40.8448 2.94676 41.3791 2.9555 41.9134 2.94676C42.1666 2.94326 42.3869 2.99572 42.5517 3.20733C42.5899 3.25629 42.6454 3.29651 42.6991 3.32799C42.857 3.41543 43.0166 3.35422 43.0877 3.18459C43.0998 3.15486 43.105 3.12164 43.1189 3.09365C43.1814 2.959 43.2906 2.8803 43.4329 2.86281C43.5769 2.84707 43.641 2.9555 43.6983 3.06742C43.7156 3.1024 43.7312 3.14087 43.7538 3.1741C43.8856 3.36996 44.1527 3.35422 44.2568 3.14087C44.3019 3.04819 44.3262 2.94501 44.4008 2.86631C44.4771 2.78412 44.5673 2.74215 44.6801 2.76838C44.7893 2.79286 44.8327 2.8803 44.8501 2.97998C44.883 3.17235 44.9333 3.35422 45.0669 3.50637C45.2022 3.66201 45.3305 3.66551 45.4641 3.50637C45.4901 3.47489 45.5109 3.44166 45.5352 3.41019C45.7191 3.1671 45.9411 3.03769 46.2603 3.12688C46.4442 3.1776 46.6402 3.15486 46.831 3.1741C47.2629 3.21607 47.6636 3.3927 48.092 3.44341C48.1996 3.45566 48.2794 3.52736 48.354 3.60255C48.4442 3.69349 48.5361 3.78268 48.6436 3.85263C48.7425 3.91559 48.8396 3.92258 48.9281 3.83864C49.1796 3.6043 49.4988 3.56933 49.8145 3.53435C50.0695 3.50637 50.3227 3.55009 50.5743 3.59556C50.7859 3.63403 50.9975 3.67775 51.2143 3.67775C51.5404 3.67775 51.7382 3.86837 51.8284 4.15517C51.9082 4.4105 52.066 4.54691 52.2967 4.66058C52.6471 4.83196 53.0131 4.86519 53.3895 4.87743C53.6532 4.88617 53.9151 4.88267 54.1788 4.88093C54.3626 4.88093 54.5465 4.88792 54.7234 4.82671C54.7755 4.80922 54.8379 4.78824 54.8691 4.85819C54.8934 4.9124 54.8518 4.95088 54.8102 4.97536C54.5066 5.16073 54.2239 5.38983 53.8561 5.44229C53.7364 5.45978 53.6254 5.49126 53.5179 5.54897C53.3011 5.66788 53.0582 5.68712 52.8206 5.69237C52.1423 5.70986 51.4658 5.70461 50.7893 5.6434C50.7651 5.64165 50.7408 5.6434 50.7182 5.63466C50.2811 5.47901 49.8093 5.45103 49.3808 5.27441C49.079 5.15024 48.7945 5.14674 48.5066 5.30239C48.4858 5.31463 48.465 5.32687 48.4407 5.33212C48.0088 5.44579 47.5769 5.55771 47.1363 5.62242C46.9437 5.6504 46.7338 5.62941 46.543 5.58394C46.0938 5.47727 45.6289 5.44579 45.1952 5.26566C45.0131 5.18871 44.8206 5.15024 44.654 5.02608C44.5257 4.92989 44.3609 4.94913 44.2256 5.04531C44.0695 5.15549 43.8995 5.2062 43.7122 5.22194C43.6185 5.22894 43.5196 5.24992 43.4346 5.29014C43.2178 5.38983 42.9906 5.41256 42.7581 5.40731C42.5586 5.40382 42.3609 5.43005 42.1614 5.44054C41.5699 5.46852 40.9836 5.44579 40.4112 5.25692C40.1701 5.17822 39.9203 5.1415 39.6896 5.01383C39.5231 4.92115 39.3149 4.93514 39.1415 5.05406C39.0131 5.1415 38.8743 5.19571 38.7234 5.22019C38.5725 5.24642 38.4494 5.3496 38.3037 5.39332C37.6462 5.58569 36.9854 5.77456 36.3071 5.85151C35.5959 5.93195 34.8813 5.96168 34.1597 5.91272C33.6965 5.88124 33.2716 5.73259 32.8327 5.62416C32.6193 5.5717 32.4355 5.42655 32.2187 5.36359C31.8475 5.25517 31.641 5.39332 31.5994 5.7903C31.5769 6.0054 31.5387 6.2205 31.5109 6.43386C31.4884 6.59824 31.4034 6.71891 31.2664 6.80111C31.164 6.86231 31.053 6.91128 30.9455 6.96374C30.8934 6.98823 30.8344 7.00746 30.7824 6.98823C30.5552 6.89904 30.3002 6.87455 30.1163 6.68568C29.9533 6.51955 29.7919 6.35341 29.6272 6.19077C29.5057 6.07186 29.386 5.95294 29.1883 6.02639C28.9801 6.10333 28.8986 6.25723 28.8743 6.46708C28.8292 6.84133 28.7859 7.21732 28.72 7.58806C28.6644 7.9011 28.5257 8.17391 28.262 8.37502C28.125 8.47995 27.9706 8.52192 27.8162 8.52017C27.563 8.51668 27.3132 8.4782 27.079 8.35229C26.8344 8.22113 26.5708 8.11445 26.3349 7.98154C26.0226 7.80491 25.6653 7.79093 25.3548 7.61779C25.19 7.52686 24.968 7.52686 24.7685 7.54784C24.5916 7.56533 24.3852 7.75945 24.3435 7.92733C24.3227 8.01302 24.3488 8.08472 24.4008 8.15118C24.5049 8.28409 24.6384 8.36453 24.805 8.38202C24.9819 8.39951 25.1519 8.43623 25.2941 8.55515C25.3236 8.57963 25.3652 8.59712 25.4034 8.60237C25.6514 8.64259 25.8284 8.81572 26.0313 8.93639C26.5205 9.22669 26.935 9.61667 27.3722 9.97517C27.5387 10.1116 27.7139 10.2427 27.8613 10.3966C28.1458 10.6939 28.4806 10.9265 28.798 11.1801C29.1241 11.4407 29.4797 11.6523 29.8353 11.8586C30.0643 11.9915 30.3193 12.093 30.5708 12.1926C30.9906 12.3588 31.4121 12.4112 31.8544 12.4182C32.0834 12.4217 32.3123 12.4637 32.5413 12.4864C32.7824 12.5092 33.027 12.5756 33.2213 12.7488C33.3583 12.8694 33.5231 12.9306 33.6792 12.8135C33.955 12.6089 34.2811 12.5651 34.5951 12.4969C35.0669 12.392 35.5439 12.3955 36.0157 12.5144C36.3592 12.6019 36.7148 12.5739 37.0599 12.6351C37.1154 12.6456 37.1762 12.6421 37.223 12.6666C37.5075 12.8205 37.8284 12.8642 38.1233 12.9849C38.2794 13.0496 38.4355 13.1073 38.6037 13.1248C38.6939 13.1335 38.7703 13.172 38.8483 13.2174C38.916 13.2577 38.9871 13.2996 39.0634 13.3206C39.3531 13.3976 39.589 13.5759 39.8422 13.7228C40.099 13.8715 40.3279 14.0551 40.5586 14.2387C40.6402 14.3034 40.713 14.3734 40.7338 14.4801C40.6714 14.5343 40.6176 14.5028 40.569 14.4801L40.5638 14.4888ZM37.7347 15.6168C37.7989 15.4734 37.9064 15.3597 38.0331 15.2793C38.406 15.0414 38.8119 14.9173 39.2594 14.982C39.3531 14.996 39.4502 15.0117 39.5439 15.01C39.7798 15.0047 40.0018 15.0484 40.2135 15.1551C40.3054 15.2006 40.4112 15.2128 40.5101 15.2478C40.7512 15.3317 40.9801 15.4402 41.1536 15.6395C41.4311 15.9613 41.4832 16.3408 41.4311 16.7448C41.3288 17.523 40.661 17.8762 39.988 17.9462C39.648 17.9812 39.2993 17.9847 38.9611 17.9462C38.4823 17.8902 38.0521 17.7049 37.7746 17.2712C37.7052 17.1627 37.6549 17.0508 37.641 16.9022C37.7538 16.9284 37.7902 17.0001 37.8284 17.0665C38.0053 17.3743 38.262 17.551 38.6089 17.6472C39.1536 17.801 39.6931 17.7975 40.2412 17.7206C40.5378 17.6786 40.7685 17.502 40.9923 17.3201C41.0894 17.2414 41.0912 17.1208 41.0426 17.0088C40.994 16.8969 40.8969 16.8987 40.798 16.9179C40.5083 16.9756 40.2273 16.9162 39.9481 16.8479C39.8006 16.813 39.6514 16.7867 39.504 16.7553C38.9819 16.6433 38.6939 16.0872 38.9801 15.5766C38.9923 15.5556 39.0079 15.5364 39.02 15.5171C39.1675 15.2845 39.0946 15.1289 38.824 15.1166C38.6298 15.1061 38.4494 15.1429 38.288 15.2758C38.1024 15.4297 37.9134 15.5748 37.8041 15.7987C37.7937 15.8197 37.7763 15.8371 37.7572 15.8529C37.7468 15.8616 37.7278 15.8581 37.7035 15.8634C37.6566 15.7742 37.7 15.6955 37.7347 15.6168ZM32.4893 18.4411C32.1961 18.3379 31.9012 18.3274 31.5942 18.3712C31.2542 18.4184 30.9177 18.4026 30.5795 18.289C30.1146 18.1316 29.6393 18.1403 29.1727 18.3082C28.9021 18.4044 28.6263 18.4813 28.3557 18.5758C28.0469 18.6842 27.7625 18.8521 27.4468 18.9395C27.4155 18.9483 27.3895 18.9675 27.3583 18.978C27.3011 18.9972 27.2455 18.9972 27.2161 18.9325C27.1935 18.8818 27.2143 18.8311 27.2577 18.8066C27.4155 18.7157 27.5595 18.602 27.7399 18.546C28.0435 18.4516 28.3488 18.3554 28.6436 18.2365C29.1952 18.0144 29.759 17.92 30.3488 18.0284C30.5673 18.0686 30.7911 18.0826 30.9992 18.1735C31.1033 18.219 31.2195 18.1998 31.3305 18.1805C31.4797 18.1543 31.6289 18.1246 31.7798 18.1088C32.0122 18.0861 32.236 18.1001 32.4528 18.2173C32.6835 18.3432 32.9507 18.3362 33.2004 18.3187C34.0816 18.2522 34.9628 18.1753 35.8492 18.2015C35.9533 18.205 36.0573 18.2068 36.1545 18.247C36.1996 18.2662 36.2499 18.2872 36.236 18.3467C36.2239 18.4009 36.1736 18.4149 36.125 18.4219C36.0938 18.4254 36.0608 18.4219 36.0296 18.4219C35.4572 18.3816 34.8847 18.3974 34.3106 18.4219C33.896 18.4394 33.4884 18.5198 33.0756 18.539C32.8726 18.5425 32.6783 18.5093 32.4875 18.4429L32.4893 18.4411ZM34.7061 7.77519C34.5465 8.048 34.406 8.32955 34.2794 8.6216C34.1458 8.92939 34.0938 9.27041 33.9047 9.55371C33.8873 9.57994 33.8752 9.61142 33.8683 9.6429C33.7677 10.1361 33.4589 10.5173 33.2022 10.9265C33.1137 11.0682 32.9715 11.1451 32.8535 11.25C32.8258 11.2745 32.7824 11.2868 32.7442 11.2938C32.6887 11.3043 32.628 11.3043 32.5951 11.2483C32.5586 11.1888 32.5951 11.1399 32.635 11.0997C32.6679 11.0664 32.7095 11.0402 32.746 11.0105C32.9992 10.8093 33.1814 10.5558 33.3409 10.2725C33.4919 10.0049 33.5925 9.71635 33.6931 9.43479C33.7989 9.14449 33.9411 8.86644 34.0209 8.56214C34.0903 8.29633 34.2152 8.041 34.3644 7.80317C34.4233 7.70873 34.4736 7.6073 34.5378 7.51636C34.5829 7.45166 34.6523 7.43067 34.7286 7.46215C34.7807 7.48314 34.7893 7.53035 34.7928 7.56183C34.7876 7.65627 34.7408 7.71398 34.7061 7.77519ZM35.0773 9.21794C35.0357 9.21794 34.9923 9.20046 34.9854 9.15674C34.9749 9.09903 35.02 9.0693 35.0669 9.05531C35.2108 9.01159 35.3566 8.96786 35.5023 8.93464C35.6098 8.91016 35.7208 8.89616 35.8318 8.88392C35.9741 8.86818 36.1146 8.84195 36.2481 8.78599C36.4164 8.71429 36.5847 8.64609 36.7703 8.62685C36.8396 8.61985 36.9108 8.58838 36.9697 8.55165C37.086 8.4782 37.2143 8.43798 37.3375 8.38202C37.4069 8.35054 37.4901 8.28758 37.5456 8.38901C37.5942 8.4782 37.5161 8.53766 37.4606 8.59187C37.3028 8.74752 37.0912 8.82796 36.8952 8.88567C36.4095 9.02907 35.9238 9.18996 35.4103 9.21794C35.3704 9.21969 35.3305 9.21794 35.2906 9.21794C35.2195 9.21794 35.1484 9.21969 35.0756 9.21794H35.0773ZM23.4589 19.34C23.1415 19.2735 22.8344 19.1511 22.5413 19.0077C22.1822 18.8311 21.8631 18.5915 21.5508 18.3432C21.4867 18.2925 21.3722 18.24 21.4572 18.1403C21.5265 18.0581 21.6202 18.1211 21.6879 18.1805C22.0036 18.4533 22.3453 18.6859 22.7234 18.8626C23.1449 19.0619 23.589 19.1791 24.0539 19.2141C24.2048 19.2263 24.354 19.2438 24.5049 19.2595C24.5604 19.2665 24.6246 19.2735 24.6211 19.3505C24.6176 19.4204 24.5569 19.4344 24.5014 19.4432C24.4702 19.4484 24.4372 19.4467 24.4372 19.4467C24.0886 19.4117 23.7677 19.4029 23.4589 19.3382V19.34ZM30.0816 8.50094C30.3245 9.134 30.7408 9.64465 31.2126 10.1133C31.2924 10.192 31.3739 10.269 31.4745 10.3197C31.5248 10.3459 31.5699 10.3774 31.6011 10.4281C31.6289 10.4718 31.6341 10.519 31.6011 10.5628C31.5751 10.5977 31.5352 10.6065 31.4936 10.5995C31.4103 10.5873 31.3479 10.5383 31.2906 10.4806C31.0703 10.2497 30.8223 10.0469 30.6141 9.80379C30.5396 9.7181 30.4893 9.61842 30.4251 9.52748C30.2308 9.25467 30.04 8.97836 29.8752 8.68631C29.8405 8.62335 29.7937 8.56739 29.7919 8.49044C29.7919 8.4135 29.8284 8.37153 29.9047 8.36453C29.9966 8.36453 30.0521 8.42049 30.0834 8.50094H30.0816ZM53.1588 4.20414C53.0409 4.17966 52.9264 4.14818 52.8171 4.10096C52.772 4.08173 52.7286 4.05374 52.7356 3.99603C52.7425 3.93657 52.7928 3.92258 52.8414 3.92084C52.9281 3.92084 53.0166 3.91909 53.1033 3.92958C53.5456 3.98029 53.9862 4.05549 54.432 4.06074C54.4407 4.06074 54.4476 4.06074 54.4563 4.06074C54.5239 4.07123 54.6211 4.06074 54.6159 4.16042C54.6107 4.25486 54.5135 4.24611 54.4459 4.24786C54.2794 4.25311 54.1111 4.24786 53.9446 4.24786C53.6809 4.25311 53.419 4.25311 53.1588 4.20064V4.20414ZM30.9611 15.6343C30.9767 15.5608 31.0305 15.4961 31.1172 15.5224C31.2074 15.5486 31.2108 15.6325 31.1762 15.7007C31.0166 16.019 31.0756 16.36 31.0703 16.6958C31.0686 16.8025 31.0998 16.9004 31.1345 17.0001C31.1571 17.063 31.164 17.133 31.086 17.1627C31.0148 17.189 30.9645 17.1435 30.9298 17.084C30.9056 17.0421 30.8882 16.9966 30.8743 16.9511C30.8206 16.7745 30.8015 16.5909 30.7824 16.395C30.8102 16.1397 30.909 15.8914 30.9611 15.6325V15.6343ZM33.2004 17.0211C33.1692 17.1085 33.1536 17.2397 33.0252 17.1995C32.8969 17.1592 32.9472 17.0456 32.9888 16.9564C33.0339 16.8584 33.0357 16.7535 33.0357 16.6503C33.0357 16.3933 33.0357 16.1362 33.0357 15.8791C33.0357 15.8232 33.0357 15.7672 33.0391 15.7112C33.0478 15.629 33.0634 15.5381 33.1675 15.5416C33.2612 15.5451 33.2664 15.6343 33.2681 15.706C33.2716 15.8739 33.2681 16.0435 33.2681 16.2114C33.2681 16.4842 33.2941 16.7588 33.197 17.0228L33.2004 17.0211Z"
        fill="#2A3663"></path>
</svg>