<svg xmlns="http://www.w3.org/2000/svg" width="25" height="25" viewBox="0 0 25 25"
    fill="currentColor" aria-hidden="true">
    <title id="title">Search icon</title>
    <path
        d="M19.7878 18.079L24.9631 23.253L23.2533 24.9628L18.0792 19.7875C16.154 21.3308 13.7594 22.1703 11.292 22.1667C5.28899 22.1667 0.416992 17.2947 0.416992 11.2917C0.416992 5.28875 5.28899 0.416748 11.292 0.416748C17.295 0.416748 22.167 5.28875 22.167 11.2917C22.1705 13.7592 21.3311 16.1538 19.7878 18.079ZM17.3639 17.1824C18.8974 15.6054 19.7538 13.4914 19.7503 11.2917C19.7503 6.61791 15.9646 2.83341 11.292 2.83341C6.61816 2.83341 2.83366 6.61791 2.83366 11.2917C2.83366 15.9644 6.61816 19.7501 11.292 19.7501C13.4917 19.7535 15.6056 18.8971 17.1826 17.3636L17.3639 17.1824V17.1824Z"
        fill="black"></path>
</svg>