<svg xmlns="http://www.w3.org/2000/svg" width="35" height="22" viewBox="0 0 35 22" fill="#2A3663">
    <path d="M18.9181 12.4231C19.4103 11.9308 19.9921 11.537 20.6007 11.2327C14.9173 11.1789 9.60968 11.1342 9.49333 11.1252H9.48438C9.48438 11.1879 9.48438 11.2595 9.48438 11.3401L12.805 12.3425L18.9181 12.4231Z" fill="#2A3663"></path>
    <path d="M25.791 11.2686C26.4086 11.5997 26.9635 12.0204 27.4289 12.5306L33.1035 12.6111C33.1035 12.6111 33.1393 12.629 33.1393 12.638C33.1393 12.6559 33.1303 12.6648 33.1035 12.6648L27.4916 12.5932C27.8675 13.0139 28.1897 13.4972 28.4224 14.0074L32.4053 14.0342C32.4053 14.0342 32.4411 14.0521 32.4411 14.07C32.4411 14.0879 32.4232 14.0969 32.4053 14.0969L28.4582 14.079C28.6909 14.607 28.8431 15.162 28.8968 15.7348C30.66 15.7527 31.8146 15.7616 31.8504 15.7706C32.0294 15.8064 32.1189 15.7079 32.2174 15.5289C32.2979 15.3857 33.6942 12.3157 34.1417 11.3402C33.1482 11.3402 29.756 11.3044 25.791 11.2775" fill="#2A3663"></path>
    <path d="M14.4864 13.7298L14.3969 13.9356L17.798 13.9535C18.0666 13.4076 18.4246 12.9153 18.8452 12.4857L13.0186 12.4141L13.8599 12.6647C14.2 12.7721 14.4238 12.9332 14.5222 13.148C14.6028 13.3091 14.5849 13.4702 14.5491 13.5687L14.4864 13.7298Z" fill="#2A3663"></path>
    <path d="M17.772 14.0163L14.3709 13.9984L14.2456 14.3116C14.1113 14.6696 13.7981 14.8039 13.3864 14.6786L13.1536 14.598L11.1846 13.9715H9.83306C9.83306 13.9715 9.79726 13.9536 9.80621 13.9357C9.80621 13.9178 9.82411 13.8999 9.83306 13.8999H10.9787L10.8803 13.8731L9.51979 13.4703C9.51979 13.4703 9.47505 13.4524 9.43924 13.4524C9.42134 14.428 9.40344 15.3051 9.40344 15.3588C9.40344 15.4662 9.46609 15.6094 9.7167 15.6094C9.81516 15.6094 13.1984 15.6273 17.2887 15.6542C17.3514 15.0635 17.5214 14.5175 17.7631 14.0073" fill="#2A3663"></path>
    <path d="M13.8067 12.8439C13.8067 12.8439 6.70008 10.6958 6.17201 10.5436C5.65289 10.3825 3.11098 9.69336 2.17119 9.69336C1.2314 9.69336 0.39007 9.93502 0.166311 10.2572C-0.0484983 10.5526 -0.155902 10.9822 0.488524 10.9554C0.649631 10.9554 1.49991 10.8659 2.17119 10.9017C2.85142 10.9375 3.42425 11.027 3.84491 11.1344C4.07762 11.197 4.6415 11.3671 5.22327 11.5998C5.8856 11.8683 6.53897 12.2621 6.84329 12.3874C7.35346 12.6112 7.53247 12.6917 7.74728 12.7633C8.43645 12.996 10.0386 13.4257 10.9426 13.7031C12.1867 14.079 13.3413 14.4639 13.4397 14.4997C13.7619 14.5982 13.9678 14.4997 14.0573 14.2401C14.1468 13.9895 14.3437 13.5778 14.3705 13.4973C14.4063 13.4257 14.46 13.0497 13.7977 12.8528M11.5064 12.9871C11.4796 13.1035 11.4259 13.1661 11.3632 13.2019C11.3006 13.2288 11.0679 13.184 10.9963 13.1572C10.9247 13.1303 10.862 13.005 10.8799 12.9155C10.8978 12.826 10.9157 12.6917 11.0768 12.647C11.1842 12.6112 11.3543 12.7096 11.399 12.7633C11.4348 12.817 11.5422 12.8618 11.5064 12.9781M13.4397 13.7031C13.3771 13.7837 13.3234 13.8195 13.2338 13.8195C13.1443 13.8195 12.9385 13.7658 12.9116 13.7031C12.8758 13.6494 12.8579 13.542 12.9027 13.4615C12.9743 13.3451 13.019 13.3004 13.1891 13.2467C13.3502 13.2019 13.4487 13.363 13.4487 13.4167C13.4576 13.4794 13.5024 13.6136 13.4487 13.6942" fill="#2A3663"></path>
    <path d="M12.3481 3.19528C13.6996 3.17738 15.1138 3.05208 15.4539 3.02523C17.0202 3.5175 20.8241 3.54435 21.6118 3.11473C21.9966 3.20423 23.5271 3.49959 24.7354 3.49959C26.0691 3.49959 27.4743 3.29374 27.8502 3.31164C28.3603 3.32954 29.2017 3.53539 29.7208 3.55329C30.3205 3.58015 30.5353 3.58015 30.9828 3.5354L31.0007 9.98861C31.4303 9.98861 31.8241 9.99757 32.1732 9.99757L32.3343 3.41009C32.7013 3.39219 33.0235 3.39219 33.2562 3.41009C33.8111 3.46379 33.7216 3.25793 33.6679 3.18633C33.301 2.71196 33.0951 1.51261 32.9966 0.724978C32.9519 0.29536 32.8445 0.134254 32.1732 0.134254L11.0056 0C10.4507 0.0179007 10.3164 0.179007 10.1911 0.49227C10.03 0.895036 9.98524 1.54841 10.03 1.92433C9.98524 2.13914 9.74358 2.23759 9.66303 2.54191C9.53772 3.02523 9.43926 3.10578 9.86888 3.13263C10.03 3.13263 10.4507 3.16843 10.9877 3.18633L11.0056 9.738C11.3815 9.738 11.829 9.74695 12.3392 9.7559V3.21318L12.3481 3.19528Z" fill="#2A3663"></path>
    <path d="M10.254 21.4719L11.1401 21.5077L11.4534 15.8242C10.8 15.8242 10.3167 15.8242 10.0303 15.8242L10.254 21.4898V21.4719Z" fill="#2A3663"></path>
    <path d="M34.4556 10.3287C34.4019 10.2123 34.3482 10.1944 33.9276 10.1944L9.69891 9.89014C9.4483 9.89014 9.29614 10.0423 9.26929 10.1676C9.22454 10.3377 9.21559 10.5167 9.18874 10.6599C9.15294 10.8926 9.25139 10.9105 9.51095 10.9373C9.61836 10.9463 15.1944 10.991 21.0122 11.0447C21.7103 10.7583 22.4532 10.6062 23.1603 10.6062C23.9389 10.6062 24.6908 10.7762 25.38 11.0716C30.1774 11.1074 34.1871 11.1432 34.1871 11.1432C34.4735 11.17 34.5272 11.179 34.563 10.8747C34.5809 10.6867 34.4914 10.4182 34.4467 10.3287" fill="#2A3663"></path>
    <path d="M23.1693 10.8031C20.4663 10.8031 17.459 13.0228 17.459 16.2629C17.459 19.5029 20.1262 22 23.2051 22C26.6152 22 28.7275 19.4044 28.7275 16.1913C28.7275 13.2376 26.0603 10.7942 23.1783 10.7942M27.913 16.1913C27.4565 16.1913 25.0937 16.1644 24.9415 16.1465C24.8341 16.1465 24.7177 16.1107 24.6193 16.0749C25.0847 15.8512 27.1433 14.9024 27.6266 14.6786C27.8056 15.153 27.9041 15.6632 27.913 16.1823M19.2849 19.2433C19.4818 19.118 21.6209 17.7218 22.0505 17.5428C22.0505 17.5607 22.0505 17.5696 22.0684 17.5786L22.0326 17.6054C21.9163 17.9366 20.7169 19.7893 20.3858 20.2816C19.9651 19.9862 19.5892 19.6372 19.2849 19.2344M23.0977 17.9366C22.9814 17.9366 22.865 17.9187 22.7576 17.9008C22.7845 18.5184 22.7129 20.5859 22.6771 21.1408C22.0953 21.0782 21.5314 20.9081 21.0123 20.6485C21.3076 20.1473 22.2564 18.6079 22.7308 17.8829C22.2027 17.7576 21.791 17.3548 21.6299 16.8446C21.3703 17.1042 19.267 18.2946 18.8463 18.5363C18.5599 17.9813 18.363 17.3638 18.3003 16.7104C18.6762 16.7104 20.9675 16.7641 21.612 16.782C21.5762 16.6567 21.5583 16.5314 21.5583 16.3971C21.5583 16.2718 21.5762 16.1465 21.603 16.0302C20.8601 16.066 18.8194 16.0481 18.2824 16.0391C18.3093 15.3857 18.4883 14.7861 18.7657 14.258C18.9984 14.3564 20.9407 15.5021 21.6299 15.9227C21.7104 15.6721 21.8626 15.4484 22.0505 15.2694C21.3613 15.0277 19.6339 13.891 19.1954 13.5867C19.5355 13.1392 19.9651 12.7454 20.4395 12.4411C20.6632 12.7991 21.8178 14.6428 22.0953 15.2336C22.2832 15.0725 22.507 14.9561 22.7486 14.9024C22.319 14.4728 21.2987 12.5485 21.057 12.092C21.6925 11.7877 22.3817 11.6087 23.044 11.5908C23.0082 12.3068 22.9456 14.2311 22.8382 14.8845C22.9277 14.8666 23.0172 14.8577 23.1067 14.8577C23.2767 14.8577 23.4378 14.8845 23.59 14.9382C23.5631 14.2132 23.5542 12.1367 23.5721 11.6087C24.2792 11.6713 24.9594 11.904 25.577 12.271C25.2906 12.6917 23.9928 14.4459 23.6079 14.9472C23.8317 15.0188 24.0286 15.1441 24.1897 15.3052C24.3776 15.0367 25.7918 13.2287 26.2035 12.7096C26.66 13.0855 27.0538 13.5509 27.3491 14.0611C26.83 14.2938 24.7893 15.1888 24.2523 15.3589C24.494 15.6274 24.6551 15.9943 24.6551 16.3971C24.6551 17.2474 23.9659 17.9455 23.1156 17.9455M23.3931 21.1766C23.411 20.7022 23.4915 18.8406 23.581 17.9366C23.9838 18.5721 25.0399 20.3711 25.2548 20.7559C24.7088 21.0066 24.0823 21.1587 23.3931 21.1856M25.8186 20.4516C25.6307 20.1473 24.5745 18.2588 24.2344 17.5607C24.6551 17.7934 26.5884 19.0285 27.0001 19.3239C26.6779 19.7714 26.284 20.1473 25.8276 20.4516M27.3133 18.8227C26.9195 18.5363 25.1653 17.2743 25.0758 17.2206C25.0131 17.1848 24.8251 17.0415 24.7088 16.9162C25.5143 16.9162 27.4028 16.9162 27.8862 16.952C27.8056 17.6323 27.6087 18.2588 27.3133 18.8227Z" fill="#2A3663"></path>
    <path d="M23.0968 15.0635C22.345 15.0635 21.7363 15.6632 21.7363 16.415C21.7363 17.1668 22.345 17.7665 23.0968 17.7665C23.8486 17.7665 24.4393 17.1579 24.4393 16.415C24.4393 15.6721 23.8397 15.0635 23.0968 15.0635ZM23.1057 17.2742C22.6672 17.2742 22.3002 16.9162 22.3002 16.4687C22.3002 16.1733 22.4524 15.9227 22.6851 15.7795C22.524 15.9048 22.4166 16.1017 22.4166 16.3165C22.4166 16.6924 22.7209 16.9968 23.1057 16.9968C23.4906 16.9968 23.786 16.6924 23.786 16.3165C23.786 16.1017 23.6786 15.9048 23.5174 15.7795C23.7502 15.9227 23.9023 16.1733 23.9023 16.4687C23.9023 16.9162 23.5353 17.2742 23.0968 17.2742" fill="#2A3663"></path>
    <path d="M27.0266 14.0073H27.0535C26.8208 13.6314 26.5344 13.3002 26.2122 13.0049C25.9615 13.3271 25.693 13.6672 25.4335 13.9984H27.0266V14.0073Z" fill="#2A3663"></path>
    <path d="M25.3884 14.061C25.102 14.428 24.8424 14.7771 24.6365 15.0277C25.2094 14.795 26.1223 14.4011 26.8831 14.07H25.3884V14.061Z" fill="#2A3663"></path>
    <path d="M23.7502 14.052C23.7502 14.1863 23.7502 14.3116 23.7502 14.4279C23.8397 14.3116 23.9292 14.1863 24.0276 14.052H23.7412H23.7502Z" fill="#2A3663"></path>
    <path d="M22.3447 14.0432C22.4611 14.2401 22.5774 14.4102 22.6669 14.5355C22.6848 14.3923 22.6938 14.2222 22.7117 14.0432H22.3447Z" fill="#2A3663"></path>
    <path d="M21.1374 13.9714C20.8421 13.4791 20.5467 13.0048 20.3766 12.7273C20.0455 12.969 19.7322 13.2464 19.4727 13.5686C19.6606 13.6939 19.8665 13.8282 20.0813 13.9625H21.1464L21.1374 13.9714Z" fill="#2A3663"></path>
    <path d="M20.1797 14.0342C20.7078 14.3653 21.2716 14.7144 21.7012 14.9292C21.558 14.6697 21.3701 14.3564 21.1821 14.0342H20.1886H20.1797Z" fill="#2A3663"></path>
    <path d="M25.1731 12.5036C25.2179 12.4409 25.2537 12.3872 25.2895 12.3424C24.8151 12.0918 24.287 11.9128 23.75 11.8323V12.4857L25.1731 12.5036Z" fill="#2A3663"></path>
    <path d="M23.7412 12.5485V12.5664C23.7412 13.0139 23.7412 13.5241 23.7412 13.9806H24.0724C24.4393 13.4883 24.8511 12.9334 25.1196 12.5575L23.7412 12.5396V12.5485Z" fill="#2A3663"></path>
    <path d="M22.7924 12.4768C22.7924 12.3783 22.8014 12.2888 22.8103 12.1993L22.8282 11.8145C22.3091 11.8503 21.7989 11.9845 21.3066 12.2083C21.3514 12.2888 21.3961 12.3783 21.4409 12.4678L22.7924 12.4857V12.4768Z" fill="#2A3663"></path>
    <path d="M21.4766 12.5215C21.7451 13.0138 22.0494 13.5508 22.3089 13.9804H22.7207C22.7475 13.5329 22.7744 13.0048 22.7923 12.5483L21.4766 12.5304V12.5215Z" fill="#2A3663"></path>
    <path d="M18.5059 15.6722C19.2666 15.6722 20.0364 15.6811 20.8151 15.6811C20.108 15.2694 19.2219 14.7413 18.846 14.5444C18.6849 14.8935 18.5685 15.2694 18.5059 15.6722Z" fill="#2A3663"></path>
    <path d="M26.3821 15.4751C26.3821 15.4751 26.1583 15.5735 25.8719 15.7078C26.5074 15.7078 27.116 15.7168 27.6888 15.7168C27.653 15.4572 27.5993 15.1976 27.5098 14.947C27.2681 15.0634 26.8833 15.2424 26.3821 15.4751Z" fill="#2A3663"></path>
  </svg>