<?xml version="1.0" standalone="no"?>
<!DOCTYPE svg PUBLIC "-//W3C//DTD SVG 20010904//EN"
 "http://www.w3.org/TR/2001/REC-SVG-20010904/DTD/svg10.dtd">
<svg version="1.0" xmlns="http://www.w3.org/2000/svg"
 width="37.000000pt" height="34.000000pt" viewBox="0 0 37.000000 34.000000"
 preserveAspectRatio="xMidYMid meet">

<g transform="translate(0.000000,34.000000) scale(0.100000,-0.100000)"
fill="#2a3663" stroke="none">
<path d="M100 280 c-30 -4 -35 -9 -37 -35 -3 -36 14 -57 38 -50 15 5 18 -3 21
-65 1 -40 -1 -78 -5 -86 -9 -16 -12 -15 78 -15 89 0 87 0 79 12 -4 6 -6 47 -5
90 l2 79 -33 0 c-28 1 -30 2 -15 11 10 6 35 8 55 5 49 -8 68 4 53 33 -8 14
-22 22 -44 23 -77 4 -155 3 -187 -2z m150 -30 c3 -1 -8 -6 -24 -10 -31 -10
-86 -3 -86 10 0 7 94 7 110 0z m-80 -30 c11 -7 7 -10 -18 -10 -20 0 -31 4 -27
10 8 13 26 13 45 0z m4 -41 c-5 -8 3 -10 24 -7 17 2 29 1 26 -3 -2 -4 3 -14
11 -22 33 -33 4 -78 -36 -57 -17 10 -23 9 -29 -1 -5 -7 -8 9 -8 37 1 48 4 64
14 64 3 0 2 -5 -2 -11z m-24 -74 c0 -5 -5 -3 -10 5 -5 8 -10 20 -10 25 0 6 5
3 10 -5 5 -8 10 -19 10 -25z"/>
<path d="M181 151 c-17 -11 -7 -41 13 -41 22 0 30 20 15 36 -9 8 -19 10 -28 5z"/>
</g>
</svg>
